<?xml version="1.0" encoding="utf-8"?>
<!-- Generator: Adobe Illustrator 24.2.1, SVG Export Plug-In . SVG Version: 6.00 Build 0)  -->
<svg version="1.1" id="Layer_1" xmlns="http://www.w3.org/2000/svg" xmlns:xlink="http://www.w3.org/1999/xlink" x="0px" y="0px"
	 viewBox="0 0 100 100" style="enable-background:new 0 0 100 100;" xml:space="preserve">
<style type="text/css">
	.st0{fill:#333333;}
	.st1{fill:#1A1A1A;}
	.st2{fill:#BD461E;}
	.st3{fill:#F15A29;}
</style>
<g>
	<circle class="st0" cx="50" cy="50" r="49.9"/>
	<path class="st1" d="M76.5,45.3l12.4-12.4l-41.1-8.6l-8.5,8.5L2.4,39.7L1.1,41c-0.2,0.9-0.3,1.9-0.4,2.8c-0.2,2-0.4,4.1-0.4,6.2
		c0,27.6,22.4,50,50,50c0.8,0,1.7,0,2.5-0.1c0.2,0,0.4,0,0.6,0l44.7-44.7L76.5,45.3z"/>
</g>
<g>
	<polygon class="st2" points="82.3,60.8 82.3,52.9 75,55.5 82.3,60.8 	"/>
	<polyline class="st2" points="36.4,76.5 28.8,70.7 36.4,68.1 36.4,76.5 	"/>
	<polygon class="st3" points="82.3,60.8 82.3,49.8 47.7,24.3 50.1,23.5 88.9,32.9 80,36.1 98.2,44.1 98.2,55.2 	"/>
	<path class="st3" d="M27.3,30.8L2.4,39.7l34,25.3l0,11.5l37.4-13.4V51.7L50,34.4L27.3,30.8z M62,59.4l-15.8,5.4l0-3.3L22.8,44.1
		l13.4-4.8l4,0.6L62,55.9V59.4z"/>
</g>
</svg>
